<svg xmlns="http://www.w3.org/2000/svg" viewBox="0 0 200 190" fill="currentColor" role="img" aria-label="Un renuevo de guadua junto a un culmo hecho, con su cota de altura"><g class="gu" style="--x:116px;--y:164px;--a:-90deg;--i:1"><path d="M118.3 164.0L118.8 152.9L119.5 141.8L119.6 130.8L118.9 119.7L118.3 108.6L118.5 97.5L119.1 86.5L119.2 75.4L118.8 64.3L118.3 53.2L118.2 42.2L118.5 31.1L118.5 20.0L112.7 20.0L112.5 31.1L112.5 42.2L112.5 53.2L113.0 64.3L113.4 75.4L113.2 86.5L112.7 97.5L112.5 108.6L113.1 119.7L113.7 130.8L113.7 141.8L113.1 152.9L112.9 164.0Z"/></g><g class="gu" style="--x:109px;--y:140px;--a:-4deg;--i:2"><path d="M109.5 141.9L111.4 141.4L113.3 141.4L115.2 141.8L117.1 141.0L119.0 141.2L120.9 141.1L122.7 140.2L122.5 137.2L120.6 137.6L118.7 137.6L116.8 137.5L114.9 137.6L113.0 137.7L111.1 138.0L109.3 138.7Z"/></g><g class="gu" style="--x:109px;--y:108px;--a:-4deg;--i:3"><path d="M109.5 109.9L111.4 109.3L113.3 109.0L115.2 109.0L117.1 109.4L119.0 109.1L120.8 108.9L122.7 108.4L122.5 105.1L120.6 105.0L118.7 105.4L116.8 106.0L114.9 105.6L113.0 105.9L111.2 106.2L109.3 106.6Z"/></g><g class="gu" style="--x:109px;--y:76px;--a:-4deg;--i:4"><path d="M109.5 77.4L111.4 77.7L113.3 77.7L115.2 77.4L117.1 77.3L119.0 77.3L120.9 77.1L122.7 76.6L122.5 73.2L120.6 73.2L118.7 73.2L116.8 73.3L114.9 74.1L113.0 73.8L111.1 73.8L109.3 74.7Z"/></g><g class="gu" style="--x:109px;--y:46px;--a:-4deg;--i:5"><path d="M109.5 47.6L111.5 48.1L113.3 48.1L115.2 47.9L117.1 47.8L119.0 47.3L120.8 46.9L122.7 46.8L122.5 43.6L120.6 43.7L118.7 43.7L116.8 43.6L114.9 43.8L113.0 43.9L111.1 44.0L109.3 44.2Z"/></g><g class="gu" style="--x:116px;--y:30px;--a:-25deg;--i:6"><path d="M116.1 30.2L120.8 29.0L125.1 27.1L129.3 24.9L133.6 23.1L138.0 21.2L142.2 19.1L146.1 16.3L146.1 16.3L141.4 17.3L136.9 18.9L132.6 20.8L128.2 22.5L124.1 24.9L119.9 27.1L115.5 29.0Z"/></g><g class="gu" style="--x:116px;--y:40px;--a:-150deg;--i:7"><path d="M116.3 39.4L112.4 37.0L108.5 34.6L104.6 32.0L100.5 30.0L96.5 27.8L92.4 25.5L88.2 23.6L88.2 23.6L91.6 26.9L95.4 29.6L99.3 32.1L103.5 34.1L107.4 36.4L111.4 38.7L115.7 40.6Z"/></g><g class="gu" style="--x:62px;--y:164px;--a:-90deg;--i:8"><path d="M63.9 164.0L64.8 154.0L65.4 144.0L65.0 134.0L65.0 124.0L65.4 114.0L65.6 104.0L65.7 94.0L64.5 84.0L61.6 74.0L61.6 74.0L60.3 84.0L60.1 94.0L59.0 104.0L58.4 114.0L57.4 124.0L57.7 134.0L58.9 144.0L58.7 154.0L58.2 164.0Z"/></g><g class="gu" style="--x:55px;--y:146px;--a:-4deg;--i:9"><path d="M54.9 147.7L56.9 147.7L59.0 147.7L61.1 147.9L63.2 147.8L65.2 147.3L67.3 147.0L69.4 147.3L69.1 143.3L67.0 142.9L65.0 143.1L62.9 143.5L60.8 143.2L58.8 143.7L56.7 144.1L54.6 144.2Z"/></g><g class="gu" style="--x:55px;--y:118px;--a:-4deg;--i:10"><path d="M54.9 119.6L57.0 119.8L59.0 119.7L61.1 119.5L63.2 119.9L65.3 119.5L67.3 119.2L69.4 119.1L69.2 115.5L67.1 115.5L65.0 115.5L62.9 115.4L60.8 115.1L58.7 115.6L56.7 116.0L54.6 116.2Z"/></g><g class="gu" style="--x:62px;--y:138px;--a:-144deg;--i:11"><path d="M62.9 136.8L59.6 134.7L56.7 132.1L53.9 129.3L50.4 127.5L47.1 125.4L43.8 123.4L40.0 122.1L40.0 122.1L42.3 125.5L45.4 127.8L48.7 129.8L51.7 132.3L54.7 134.9L57.8 137.2L61.5 138.7Z"/></g><g class="gu" style="--x:62px;--y:110px;--a:-36deg;--i:12"><path d="M62.6 110.8L66.1 109.0L69.2 106.7L72.1 104.1L75.9 102.7L78.7 99.9L81.4 97.1L84.0 94.0L84.0 94.0L80.0 95.1L76.7 97.2L73.7 99.6L70.3 101.6L67.3 104.0L64.2 106.4L61.1 108.7Z"/></g><g class="gu" style="--x:62px;--y:92px;--a:-144deg;--i:13"><path d="M62.7 91.0L59.7 88.6L56.7 86.1L53.7 83.6L50.6 81.3L47.4 79.0L44.1 76.9L40.3 75.6L40.3 75.6L42.5 79.1L45.4 81.8L48.4 84.3L51.5 86.6L54.8 88.7L58.1 90.8L61.2 93.1Z"/></g><g class="gu" style="--x:14px;--y:168px;--a:1deg;--i:14"><path d="M14.0 167.7L25.5 168.4L36.9 168.5L48.4 168.7L59.9 168.9L71.3 168.9L82.8 169.0L94.3 169.2L105.7 169.5L117.2 169.7L128.7 170.2L140.1 171.0L151.6 171.4L163.1 171.0L174.5 170.2L186.0 169.3L186.0 169.3L174.5 168.9L163.1 169.2L151.6 169.3L140.1 168.7L128.7 167.8L117.2 167.3L105.8 167.1L94.3 166.9L82.8 166.8L71.4 166.6L59.9 166.5L48.4 166.4L37.0 166.6L25.5 167.0L14.0 167.7Z"/></g><g class="gu" style="--x:50px;--y:180px;--a:-1deg;--i:15"><path d="M49.9 180.6L59.6 183.0L69.3 184.3L79.2 184.2L89.1 185.9L99.1 185.5L108.8 183.8L118.5 181.7L128.0 178.7L127.9 178.0L118.1 178.9L108.3 180.1L98.6 181.1L89.0 181.8L79.5 180.7L69.7 180.5L59.9 180.0L50.0 179.9Z"/></g><g class="gu" style="--x:176px;--y:22px;--a:90deg;--i:16"><path d="M175.6 22.0L175.1 33.1L174.5 44.2L174.3 55.2L174.5 66.3L174.7 77.4L174.8 88.5L175.1 99.5L175.2 110.6L175.0 121.7L174.8 132.8L174.8 143.8L175.0 154.9L175.3 166.0L177.3 166.0L177.3 154.9L177.2 143.8L177.2 132.8L177.6 121.7L177.9 110.6L177.7 99.5L177.0 88.5L176.7 77.4L176.8 66.3L176.8 55.2L176.9 44.2L177.4 33.1L177.5 22.0Z"/></g><g class="gu" style="--x:165px;--y:29px;--a:0deg;--i:17"><path d="M165.1 29.1L168.4 27.5L171.7 25.7L174.8 24.1L177.2 24.1L180.2 25.8L183.4 27.7L186.8 29.3L186.9 29.1L184.2 26.5L181.2 24.3L177.9 22.0L174.2 22.4L170.8 24.3L167.7 26.3L165.0 28.9Z"/></g><g class="gu" style="--x:165px;--y:159px;--a:0deg;--i:18"><path d="M165.1 158.9L167.7 161.8L170.6 164.0L174.0 166.2L177.9 165.9L181.1 163.6L184.1 161.4L187.2 159.3L187.1 159.1L183.4 160.3L180.1 162.0L177.1 163.6L174.8 163.8L171.9 162.1L168.6 160.3L165.2 158.7Z"/></g></svg>
