<svg xmlns="http://www.w3.org/2000/svg" viewBox="0 0 200 190" fill="currentColor" role="img" aria-label="Copas de guadua cruzándose en bóveda, vistas desde abajo"><g class="gu" style="--x:30px;--y:190px;--a:-60deg;--i:1"><path d="M34.5 190.6L35.8 178.5L36.7 166.3L37.6 154.0L38.9 141.9L40.9 129.9L43.5 118.5L49.8 108.7L55.9 98.1L61.5 87.3L66.7 76.2L72.0 65.1L77.4 54.4L84.9 45.6L94.2 37.9L103.6 30.2L112.7 22.0L121.4 13.4L129.6 4.3L137.9 -4.8L145.9 -14.2L144.7 -15.4L135.1 -7.8L126.2 0.6L117.5 9.1L108.5 17.4L99.2 25.3L89.7 33.1L80.1 41.1L71.9 50.8L65.9 61.9L60.3 72.7L54.6 83.5L48.9 94.3L42.9 105.0L36.6 116.2L34.2 128.9L32.4 141.0L31.1 153.1L30.0 165.3L29.0 177.5L27.6 189.7Z"/></g><g class="gu" style="--x:80px;--y:190px;--a:-77deg;--i:2"><path d="M83.0 190.2L83.5 177.8L83.7 165.5L84.1 153.1L84.8 140.8L85.9 128.5L86.9 116.5L90.1 104.9L93.0 92.9L95.8 80.9L98.7 68.9L101.7 57.0L106.1 45.7L110.8 34.3L115.5 22.9L120.6 11.7L125.6 0.4L129.7 -11.3L128.2 -11.9L122.2 -1.0L116.8 10.0L111.5 21.2L106.5 32.5L101.2 43.7L96.2 55.3L92.9 67.4L90.1 79.4L87.4 91.4L84.6 103.5L81.4 115.7L80.5 128.2L79.6 140.5L78.9 152.9L78.3 165.2L77.7 177.5L77.0 189.8Z"/></g><g class="gu" style="--x:124px;--y:190px;--a:-104deg;--i:3"><path d="M126.2 189.9L125.8 178.2L125.6 166.5L125.5 154.7L124.9 143.0L123.8 131.4L122.6 119.6L120.4 107.9L117.8 96.4L115.7 84.8L113.7 73.3L111.0 61.9L107.4 50.3L101.5 39.8L95.9 29.5L90.7 19.0L85.5 8.5L80.3 -2.0L74.5 -12.2L73.3 -11.7L77.3 -0.6L81.6 10.3L85.9 21.2L90.7 31.9L95.9 42.4L101.2 52.6L104.4 63.6L107.1 75.0L109.6 86.4L112.2 97.8L115.0 109.0L116.9 120.2L117.8 131.7L118.6 143.4L119.2 155.1L119.6 166.8L120.0 178.5L120.5 190.2Z"/></g><g class="gu" style="--x:172px;--y:190px;--a:-120deg;--i:4"><path d="M174.9 189.6L173.1 177.5L171.1 165.4L169.2 153.2L167.4 141.1L165.9 128.8L163.6 116.4L158.1 104.9L152.5 94.0L146.6 83.2L140.8 72.5L134.9 61.7L128.7 50.6L120.0 41.2L110.7 33.0L101.4 25.0L92.2 16.9L83.2 8.6L74.1 0.3L65.0 -7.9L55.2 -15.4L54.1 -14.1L62.2 -4.8L70.8 3.9L79.6 12.5L88.4 21.0L97.3 29.4L106.2 37.9L115.1 46.2L122.8 54.8L128.6 65.1L134.9 75.7L141.1 86.2L147.2 96.9L152.8 107.8L157.9 118.5L159.9 129.9L161.3 142.0L163.2 154.1L165.3 166.2L167.3 178.3L169.2 190.4Z"/></g><g class="gu" style="--x:74px;--y:118px;--a:-4deg;--i:5"><path d="M73.6 119.7L75.5 120.2L77.4 120.2L79.3 120.0L81.1 120.0L82.9 119.4L84.8 119.0L86.7 119.0L86.4 115.5L84.5 115.6L82.7 115.6L80.8 115.4L78.9 115.7L77.1 115.8L75.2 115.9L73.4 116.1Z"/></g><g class="gu" style="--x:78px;--y:74px;--a:-5deg;--i:6"><path d="M78.1 75.4L79.9 75.8L81.6 75.7L83.3 75.4L85.0 75.3L86.7 75.4L88.5 75.3L90.1 74.7L89.9 71.7L88.1 71.2L86.4 71.3L84.7 71.5L83.0 71.3L81.3 71.7L79.6 72.0L77.8 72.0Z"/></g><g class="gu" style="--x:118px;--y:116px;--a:-4deg;--i:7"><path d="M117.6 117.7L119.5 117.4L121.3 117.4L123.2 117.5L125.1 117.2L126.9 117.0L128.8 116.8L130.7 117.0L130.4 113.6L128.5 113.6L126.6 113.5L124.8 113.4L122.9 113.8L121.1 113.9L119.2 114.0L117.4 114.3Z"/></g><g class="gu" style="--x:112px;--y:72px;--a:-5deg;--i:8"><path d="M112.1 73.3L113.9 73.8L115.6 73.8L117.3 73.6L119.0 73.5L120.8 73.5L122.5 73.2L124.1 72.5L123.9 69.3L122.1 69.5L120.4 69.5L118.7 69.3L116.9 69.0L115.2 69.5L113.6 69.9L111.8 70.2Z"/></g><g class="gu" style="--x:118px;--y:34px;--a:-24deg;--i:9"><path d="M118.4 34.8L123.1 33.2L127.7 31.3L132.4 29.5L137.1 27.8L141.4 25.2L145.8 22.8L150.2 20.4L150.2 20.4L144.9 20.7L140.2 22.6L135.8 24.9L131.0 26.4L126.6 28.8L122.1 31.0L117.6 33.1Z"/></g><g class="gu" style="--x:86px;--y:40px;--a:-152deg;--i:10"><path d="M86.3 39.4L82.3 36.5L78.1 34.2L73.7 32.1L69.8 29.0L65.4 27.0L60.9 25.1L56.2 23.6L56.2 23.6L60.0 26.9L64.1 29.5L68.3 31.9L72.2 35.0L76.7 36.8L81.1 38.8L85.5 40.9Z"/></g><g class="gu" style="--x:136px;--y:58px;--a:16deg;--i:11"><path d="M135.7 59.1L139.7 60.1L143.6 61.7L147.4 63.4L151.6 64.0L155.7 64.9L159.7 65.7L164.0 65.9L164.0 65.9L160.4 63.6L156.4 62.4L152.3 61.6L148.3 60.3L144.4 58.8L140.4 57.7L136.1 57.6Z"/></g><g class="gu" style="--x:66px;--y:60px;--a:171deg;--i:12"><path d="M65.9 59.4L62.1 59.2L58.4 59.8L54.7 60.7L50.8 60.3L47.2 61.4L43.6 62.6L40.0 64.0L40.0 64.0L43.9 64.7L47.7 64.3L51.3 63.6L55.1 63.4L58.8 62.6L62.5 61.8L66.2 61.2Z"/></g><g class="gu" style="--x:100px;--y:20px;--a:-61deg;--i:13"><path d="M100.7 20.4L102.5 18.0L104.1 15.6L105.8 13.1L107.2 10.5L108.7 8.0L109.9 5.3L110.4 2.2L110.4 2.2L107.8 4.2L106.0 6.5L104.4 9.0L102.9 11.5L101.7 14.2L100.5 16.9L99.2 19.5Z"/></g></svg>
